<?xml version="1.0" standalone="no"?>
<!DOCTYPE svg PUBLIC "-//W3C//DTD SVG 1.1//EN" "http://www.w3.org/Graphics/SVG/1.1/DTD/svg11.dtd">
<svg xmlns="http://www.w3.org/2000/svg" xmlns:xlink="http://www.w3.org/1999/xlink" width="375" zoomAndPan="magnify" viewBox="0 0 375 374.999991" height="375" preserveAspectRatio="xMidYMid meet" version="1.0"><defs><g/><clipPath id="2b03479a70"><path d="M 101 61.863281 L 274 61.863281 L 274 238 L 101 238 Z M 101 61.863281 " clip-rule="nonzero"/></clipPath><clipPath id="e39845d641"><path d="M 272 254 L 324.582031 254 L 324.582031 302.613281 L 272 302.613281 Z M 272 254 " clip-rule="nonzero"/></clipPath><clipPath id="703c727d08"><path d="M 50.082031 254 L 103 254 L 103 302.613281 L 50.082031 302.613281 Z M 50.082031 254 " clip-rule="nonzero"/></clipPath></defs><path fill="#083e78" d="M 254.859375 165.109375 L 254.859375 99.753906 L 192.222656 82.722656 L 192.222656 165.109375 L 254.859375 165.109375 " fill-opacity="1" fill-rule="nonzero"/><g clip-path="url(#2b03479a70)"><path fill="#083e78" d="M 187.425781 61.875 L 101.136719 85.339844 L 101.136719 191.183594 C 101.136719 208.277344 106.109375 224.207031 114.683594 237.613281 C 117.753906 236.53125 120.851562 235.519531 123.96875 234.574219 C 115.257812 221.894531 110.566406 206.902344 110.566406 191.183594 L 110.566406 92.550781 L 187.425781 71.644531 L 264.289062 92.550781 L 264.289062 191.183594 C 264.289062 206.886719 259.609375 221.863281 250.914062 234.535156 C 254.03125 235.476562 257.132812 236.488281 260.203125 237.566406 C 268.757812 224.171875 273.714844 208.257812 273.714844 191.183594 L 273.714844 85.339844 L 187.425781 61.875 " fill-opacity="1" fill-rule="nonzero"/></g><path fill="#083e78" d="M 187.507812 264.324219 C 174.4375 264.324219 161.570312 265.714844 149.003906 268.46875 C 160.574219 274.230469 173.621094 277.472656 187.425781 277.472656 C 201.25 277.472656 214.316406 274.222656 225.898438 268.441406 C 213.371094 265.707031 200.542969 264.324219 187.507812 264.324219 " fill-opacity="1" fill-rule="nonzero"/><path fill="#083e78" d="M 298.214844 191.132812 C 298.214844 191.132812 292.808594 193.015625 289.269531 197.019531 C 289.375 195.082031 289.429688 193.136719 289.429688 191.183594 L 289.429688 189.328125 C 298.449219 186.304688 297.882812 173.121094 297.882812 173.121094 C 297.882812 173.121094 292.699219 175.332031 289.429688 179.496094 L 289.429688 172.011719 C 298.449219 168.988281 297.882812 155.808594 297.882812 155.808594 C 297.882812 155.808594 292.699219 158.019531 289.429688 162.183594 L 289.429688 154.699219 C 298.449219 151.675781 297.882812 138.496094 297.882812 138.496094 C 297.882812 138.496094 292.699219 140.707031 289.429688 144.871094 L 289.429688 137.386719 C 298.449219 134.363281 297.882812 121.183594 297.882812 121.183594 C 297.882812 121.183594 292.699219 123.390625 289.429688 127.558594 L 289.429688 120.074219 C 298.449219 117.046875 297.882812 103.871094 297.882812 103.871094 C 297.882812 103.871094 292.699219 106.078125 289.429688 110.242188 L 289.429688 102.761719 C 298.449219 99.734375 297.882812 86.558594 297.882812 86.558594 C 297.882812 86.558594 292.699219 88.765625 289.429688 92.929688 L 289.429688 89.863281 C 297.921875 83.222656 287.859375 71.644531 287.859375 71.644531 C 287.859375 71.644531 277.796875 83.222656 286.289062 89.863281 L 286.289062 92.929688 C 283.019531 88.765625 277.835938 86.558594 277.835938 86.558594 C 277.835938 86.558594 277.269531 99.734375 286.289062 102.761719 L 286.289062 110.246094 C 283.019531 106.078125 277.835938 103.871094 277.835938 103.871094 C 277.835938 103.871094 277.269531 117.046875 286.289062 120.074219 L 286.289062 127.558594 C 283.019531 123.390625 277.835938 121.183594 277.835938 121.183594 C 277.835938 121.183594 277.269531 134.363281 286.289062 137.386719 L 286.289062 144.871094 C 283.019531 140.707031 277.835938 138.496094 277.835938 138.496094 C 277.835938 138.496094 277.269531 151.675781 286.289062 154.699219 L 286.289062 162.183594 C 283.019531 158.019531 277.835938 155.808594 277.835938 155.808594 C 277.835938 155.808594 277.269531 168.988281 286.289062 172.011719 L 286.289062 179.496094 C 283.019531 175.332031 277.835938 173.121094 277.835938 173.121094 C 277.835938 173.121094 277.269531 186.304688 286.289062 189.328125 L 286.289062 191.183594 C 286.289062 193 286.238281 194.804688 286.140625 196.601562 C 283.152344 192.292969 278.210938 189.777344 278.210938 189.777344 C 278.210938 189.777344 276.804688 202.476562 285.136719 206.335938 C 283.90625 214.34375 281.695312 222.148438 278.515625 229.671875 C 276.679688 234.003906 274.554688 238.175781 272.152344 242.167969 C 273.125 242.578125 274.097656 242.996094 275.066406 243.417969 C 277.457031 239.410156 279.574219 235.230469 281.410156 230.894531 C 284.6875 223.140625 286.972656 215.089844 288.242188 206.835938 C 297.878906 204.742188 298.214844 191.132812 298.214844 191.132812 " fill-opacity="1" fill-rule="nonzero"/><path fill="#083e78" d="M 89.660156 205.976562 C 96.914062 202.339844 97.1875 191.132812 97.1875 191.132812 C 97.1875 191.132812 92.238281 192.855469 88.707031 196.511719 C 88.613281 194.742188 88.566406 192.96875 88.566406 191.183594 L 88.566406 189.269531 C 97.414062 186.144531 96.855469 173.121094 96.855469 173.121094 C 96.855469 173.121094 91.839844 175.261719 88.566406 179.296875 L 88.566406 171.957031 C 97.414062 168.828125 96.855469 155.808594 96.855469 155.808594 C 96.855469 155.808594 91.839844 157.949219 88.566406 161.984375 L 88.566406 154.644531 C 97.414062 151.515625 96.855469 138.496094 96.855469 138.496094 C 96.855469 138.496094 91.839844 140.632812 88.566406 144.667969 L 88.566406 137.328125 C 97.414062 134.203125 96.855469 121.183594 96.855469 121.183594 C 96.855469 121.183594 91.839844 123.324219 88.566406 127.355469 L 88.566406 120.015625 C 97.414062 116.890625 96.855469 103.871094 96.855469 103.871094 C 96.855469 103.871094 91.839844 106.007812 88.566406 110.042969 L 88.566406 102.703125 C 97.414062 99.574219 96.855469 86.558594 96.855469 86.558594 C 96.855469 86.558594 91.839844 88.695312 88.566406 92.730469 L 88.566406 89.734375 C 96.769531 83.074219 86.832031 71.644531 86.832031 71.644531 C 86.832031 71.644531 76.640625 83.371094 85.421875 89.988281 L 85.421875 93.144531 C 82.167969 88.839844 76.808594 86.558594 76.808594 86.558594 C 76.808594 86.558594 76.234375 99.894531 85.421875 102.8125 L 85.421875 110.453125 C 82.167969 106.152344 76.808594 103.871094 76.808594 103.871094 C 76.808594 103.871094 76.234375 117.207031 85.421875 120.128906 L 85.421875 127.769531 C 82.167969 123.464844 76.808594 121.183594 76.808594 121.183594 C 76.808594 121.183594 76.234375 134.519531 85.421875 137.441406 L 85.421875 145.082031 C 82.167969 140.78125 76.808594 138.496094 76.808594 138.496094 C 76.808594 138.496094 76.234375 151.835938 85.421875 154.753906 L 85.421875 162.394531 C 82.167969 158.09375 76.808594 155.808594 76.808594 155.808594 C 76.808594 155.808594 76.234375 169.148438 85.421875 172.066406 L 85.421875 179.707031 C 82.167969 175.40625 76.808594 173.121094 76.808594 173.121094 C 76.808594 173.121094 76.234375 186.460938 85.421875 189.378906 L 85.421875 191.183594 C 85.421875 193.253906 85.484375 195.3125 85.605469 197.359375 C 82.707031 192.585938 77.1875 189.777344 77.1875 189.777344 C 77.1875 189.777344 75.625 203.855469 85.519531 206.871094 C 85.535156 206.9375 85.546875 207.003906 85.566406 207.070312 C 85.734375 207.058594 85.902344 207.042969 86.066406 207.023438 C 86.226562 207.066406 86.390625 207.105469 86.554688 207.140625 C 86.582031 207.074219 86.601562 207.011719 86.625 206.945312 L 86.632812 206.945312 C 87.90625 215.160156 90.179688 223.175781 93.445312 230.894531 C 95.289062 235.253906 97.417969 239.449219 99.820312 243.472656 C 100.789062 243.050781 101.761719 242.632812 102.738281 242.222656 C 100.316406 238.214844 98.183594 234.023438 96.339844 229.671875 C 93.113281 222.039062 90.878906 214.109375 89.660156 205.976562 " fill-opacity="1" fill-rule="nonzero"/><path fill="#083e78" d="M 225.914062 282.273438 C 213.714844 287.429688 200.769531 290.046875 187.425781 290.046875 C 174.085938 290.046875 161.140625 287.429688 148.941406 282.273438 C 142.980469 279.75 137.324219 276.675781 132.019531 273.078125 C 130.78125 273.484375 129.542969 273.902344 128.3125 274.332031 C 134.347656 278.628906 140.832031 282.253906 147.71875 285.164062 C 160.304688 290.488281 173.664062 293.191406 187.425781 293.191406 C 201.191406 293.191406 214.550781 290.488281 227.136719 285.164062 C 234.042969 282.246094 240.546875 278.609375 246.59375 274.292969 C 245.363281 273.863281 244.128906 273.445312 242.890625 273.042969 C 237.566406 276.65625 231.894531 279.742188 225.914062 282.273438 " fill-opacity="1" fill-rule="nonzero"/><path fill="#083e78" d="M 262.484375 274.949219 C 214.800781 253.800781 160.214844 253.800781 112.53125 274.949219 C 108.609375 266.222656 104.6875 257.5 100.765625 248.777344 C 155.875 224.292969 219.140625 224.292969 274.253906 248.777344 C 270.332031 257.5 266.40625 266.222656 262.484375 274.949219 " fill-opacity="1" fill-rule="nonzero"/><g clip-path="url(#e39845d641)"><path fill="#083e78" d="M 306.238281 302.699219 C 295.714844 293.804688 284.363281 286.109375 272.1875 279.664062 C 276.617188 271.1875 281.046875 262.707031 285.476562 254.230469 C 299.566406 261.675781 312.710938 270.585938 324.871094 280.882812 C 315.878906 279.347656 306.847656 278.449219 297.730469 278.222656 C 301.089844 286.203125 303.933594 294.351562 306.238281 302.699219 " fill-opacity="1" fill-rule="nonzero"/></g><g clip-path="url(#703c727d08)"><path fill="#083e78" d="M 68.777344 302.699219 C 79.300781 293.804688 90.652344 286.109375 102.828125 279.664062 C 98.398438 271.1875 93.96875 262.707031 89.539062 254.230469 C 75.449219 261.675781 62.308594 270.585938 50.144531 280.882812 C 59.136719 279.347656 68.171875 278.449219 77.289062 278.222656 C 73.925781 286.203125 71.085938 294.351562 68.777344 302.699219 " fill-opacity="1" fill-rule="nonzero"/></g><path fill="#ffffff" d="M 236.742188 143.03125 C 235.09375 142.019531 233.34375 141.214844 231.542969 140.617188 C 232.71875 137.808594 233.367188 134.820312 233.488281 131.816406 L 241.503906 131.816406 C 241.265625 136.136719 239.503906 140.050781 236.742188 143.03125 Z M 210.335938 118.582031 C 211.992188 119.59375 213.738281 120.394531 215.539062 120.992188 C 214.359375 123.804688 213.710938 126.789062 213.59375 129.792969 L 205.574219 129.792969 C 205.816406 125.472656 207.578125 121.558594 210.335938 118.582031 Z M 224.550781 129.792969 L 224.550781 122.257812 C 226.242188 122.191406 227.929688 121.957031 229.582031 121.554688 C 230.714844 124.179688 231.339844 126.980469 231.460938 129.792969 Z M 224.550781 139.355469 L 224.550781 131.816406 L 231.460938 131.816406 C 231.339844 134.632812 230.714844 137.429688 229.582031 140.058594 C 227.929688 139.65625 226.242188 139.421875 224.550781 139.355469 Z M 230.679688 142.464844 C 232.25 142.96875 233.777344 143.640625 235.230469 144.484375 C 232.71875 146.632812 229.613281 148.101562 226.1875 148.605469 C 228.035156 146.753906 229.53125 144.679688 230.679688 142.464844 Z M 224.550781 147.382812 L 224.550781 141.375 C 225.9375 141.4375 227.316406 141.621094 228.679688 141.921875 C 227.609375 143.890625 226.234375 145.738281 224.550781 147.382812 Z M 216.402344 142.464844 C 217.550781 144.679688 219.046875 146.753906 220.890625 148.605469 C 217.46875 148.101562 214.359375 146.632812 211.851562 144.484375 C 213.300781 143.640625 214.828125 142.96875 216.402344 142.464844 Z M 222.53125 147.382812 C 220.847656 145.738281 219.472656 143.890625 218.402344 141.921875 C 219.761719 141.621094 221.144531 141.4375 222.53125 141.375 Z M 222.53125 131.816406 L 222.53125 139.355469 C 220.835938 139.417969 219.152344 139.652344 217.496094 140.058594 C 216.367188 137.429688 215.738281 134.632812 215.617188 131.816406 Z M 222.53125 122.257812 L 222.53125 129.792969 L 215.617188 129.792969 C 215.738281 126.980469 216.367188 124.179688 217.496094 121.554688 C 219.152344 121.957031 220.835938 122.191406 222.53125 122.257812 Z M 216.402344 119.148438 C 214.828125 118.644531 213.300781 117.96875 211.851562 117.125 C 214.359375 114.980469 217.46875 113.511719 220.890625 113.007812 C 219.046875 114.855469 217.550781 116.933594 216.402344 119.148438 Z M 222.53125 114.226562 L 222.53125 120.234375 C 221.144531 120.175781 219.761719 119.992188 218.402344 119.6875 C 219.472656 117.71875 220.847656 115.875 222.53125 114.226562 Z M 226.191406 113.007812 C 229.613281 113.511719 232.71875 114.980469 235.230469 117.128906 C 233.777344 117.96875 232.25 118.644531 230.679688 119.148438 C 229.53125 116.933594 228.035156 114.855469 226.191406 113.007812 Z M 224.550781 114.226562 C 226.234375 115.875 227.609375 117.71875 228.679688 119.6875 C 227.316406 119.992188 225.9375 120.175781 224.550781 120.234375 Z M 213.59375 131.816406 C 213.710938 134.820312 214.359375 137.808594 215.539062 140.617188 C 213.738281 141.214844 211.992188 142.019531 210.335938 143.03125 C 207.578125 140.050781 205.816406 136.136719 205.574219 131.816406 Z M 241.503906 129.792969 L 233.488281 129.792969 C 233.367188 126.789062 232.71875 123.804688 231.542969 120.992188 C 233.34375 120.394531 235.09375 119.59375 236.742188 118.582031 C 239.503906 121.558594 241.265625 125.472656 241.503906 129.792969 Z M 223.539062 110.9375 C 212.566406 110.9375 203.667969 119.832031 203.667969 130.804688 C 203.667969 141.78125 212.566406 150.675781 223.539062 150.675781 C 234.511719 150.675781 243.410156 141.78125 243.410156 130.804688 C 243.410156 119.832031 234.511719 110.9375 223.539062 110.9375 " fill-opacity="1" fill-rule="nonzero"/><path fill="#083e78" d="M 119.996094 174.535156 L 119.996094 191.183594 C 119.996094 206.078125 124.796875 220.226562 133.652344 231.882812 C 136.519531 231.15625 139.398438 230.488281 142.292969 229.878906 C 155.585938 227.082031 169.1875 225.523438 182.792969 225.230469 L 182.792969 174.535156 L 119.996094 174.535156 " fill-opacity="1" fill-rule="nonzero"/><path fill="#38b6ff" d="M 192.222656 174.535156 L 192.222656 225.230469 C 205.832031 225.523438 219.429688 227.082031 232.722656 229.878906 C 235.570312 230.476562 238.40625 231.136719 241.226562 231.847656 C 250.070312 220.199219 254.859375 206.0625 254.859375 191.183594 L 254.859375 174.535156 L 192.222656 174.535156 " fill-opacity="1" fill-rule="nonzero"/><path fill="#38b6ff" d="M 182.792969 165.109375 L 182.792969 82.679688 L 119.996094 99.753906 L 119.996094 165.109375 L 182.792969 165.109375 " fill-opacity="1" fill-rule="nonzero"/><path fill="#ffffff" d="M 129.023438 118.289062 L 129.023438 143.714844 L 130.121094 143.597656 C 130.964844 143.507812 131.820312 143.460938 132.671875 143.460938 C 138.210938 143.460938 142.925781 145.417969 145.90625 147.058594 C 149.136719 148.839844 151.050781 150.617188 151.070312 150.636719 L 151.113281 150.675781 C 148.386719 149.199219 137.316406 143.773438 126.242188 146.613281 L 126.242188 118.433594 C 127.167969 118.332031 128.097656 118.289062 129.023438 118.289062 " fill-opacity="1" fill-rule="nonzero"/><path fill="#ffffff" d="M 149.183594 145.875 C 145.601562 143.582031 139.765625 140.769531 132.671875 140.769531 C 132.351562 140.769531 132.03125 140.773438 131.710938 140.785156 L 131.710938 116.796875 C 132.03125 116.78125 132.351562 116.773438 132.671875 116.773438 C 136.289062 116.773438 139.949219 117.613281 143.550781 119.269531 C 146.046875 120.417969 147.992188 121.726562 149.183594 122.617188 Z M 130.015625 115.21875 L 130.015625 142.609375 C 140.261719 141.503906 148.308594 147.113281 150.882812 149.175781 L 150.882812 121.785156 C 148.308594 119.722656 140.261719 114.113281 130.015625 115.21875 " fill-opacity="1" fill-rule="nonzero"/><path fill="#ffffff" d="M 173.726562 118.289062 L 173.726562 143.714844 L 172.628906 143.597656 C 171.785156 143.507812 170.929688 143.460938 170.078125 143.460938 C 164.539062 143.460938 159.824219 145.417969 156.84375 147.058594 C 153.613281 148.839844 151.699219 150.617188 151.679688 150.636719 L 151.636719 150.675781 C 154.363281 149.199219 165.433594 143.773438 176.507812 146.613281 L 176.507812 118.433594 C 175.582031 118.332031 174.652344 118.289062 173.726562 118.289062 " fill-opacity="1" fill-rule="nonzero"/><path fill="#ffffff" d="M 171.035156 140.785156 C 170.71875 140.773438 170.398438 140.769531 170.078125 140.769531 C 162.984375 140.769531 157.148438 143.582031 153.566406 145.875 L 153.566406 122.617188 C 154.757812 121.726562 156.703125 120.417969 159.199219 119.269531 C 162.800781 117.613281 166.460938 116.773438 170.078125 116.773438 C 170.398438 116.773438 170.71875 116.78125 171.035156 116.796875 Z M 151.867188 121.785156 L 151.867188 149.175781 C 154.441406 147.113281 162.488281 141.503906 172.734375 142.609375 L 172.734375 115.21875 C 162.488281 114.113281 154.441406 119.722656 151.867188 121.785156 " fill-opacity="1" fill-rule="nonzero"/><path fill="#ffffff" d="M 209.164062 214.042969 L 208.667969 220.003906 L 214.25 217.859375 C 212.921875 216.167969 211.164062 214.847656 209.164062 214.042969 Z M 219.398438 212.117188 C 217.988281 212.789062 216.257812 212.679688 214.921875 211.671875 C 213.582031 210.667969 212.988281 209.039062 213.246094 207.496094 C 212.144531 208.023438 210.851562 208.070312 209.703125 207.589844 L 209.25 213.027344 C 211.617188 213.917969 213.6875 215.46875 215.199219 217.496094 L 220.296875 215.542969 C 219.511719 214.574219 219.199219 213.320312 219.398438 212.117188 Z M 239.570312 186.058594 L 235.027344 192.105469 L 236.933594 193.535156 L 239.945312 189.527344 C 240.757812 188.445312 240.578125 186.929688 239.570312 186.058594 Z M 220.988281 210.808594 C 220.082031 212.019531 220.113281 213.648438 220.964844 214.808594 L 235.941406 194.859375 L 234.039062 193.425781 Z M 234.25 191.519531 L 238.792969 185.464844 L 233.425781 181.433594 L 228.878906 187.488281 Z M 214.835938 206.191406 C 213.726562 207.671875 214.023438 209.78125 215.507812 210.890625 C 216.984375 212.003906 219.097656 211.703125 220.207031 210.222656 L 233.257812 192.84375 L 227.886719 188.808594 Z M 232.636719 180.851562 C 231.519531 180.128906 230.015625 180.382812 229.203125 181.460938 L 226.191406 185.46875 L 228.097656 186.902344 Z M 214.054688 205.605469 L 227.105469 188.222656 L 225.199219 186.792969 L 210.222656 206.746094 C 211.574219 207.234375 213.148438 206.8125 214.054688 205.605469 " fill-opacity="1" fill-rule="nonzero"/><path fill="#ffffff" d="M 145.878906 190.40625 C 144.421875 190.40625 143.238281 191.589844 143.238281 193.050781 C 143.238281 194.507812 144.421875 195.691406 145.878906 195.691406 L 148.519531 195.691406 L 148.519531 193.050781 C 148.519531 191.589844 147.339844 190.40625 145.878906 190.40625 " fill-opacity="1" fill-rule="nonzero"/><path fill="#ffffff" d="M 151.394531 208.558594 C 152.621094 208.558594 153.621094 207.558594 153.621094 206.335938 L 153.621094 196.339844 L 149.167969 196.339844 L 149.167969 206.335938 C 149.167969 207.558594 150.167969 208.558594 151.394531 208.558594 " fill-opacity="1" fill-rule="nonzero"/><path fill="#ffffff" d="M 159.550781 193.050781 C 159.550781 191.589844 158.371094 190.40625 156.910156 190.40625 C 155.453125 190.40625 154.269531 191.589844 154.269531 193.050781 L 154.269531 195.691406 L 156.910156 195.691406 C 158.371094 195.691406 159.550781 194.507812 159.550781 193.050781 " fill-opacity="1" fill-rule="nonzero"/><path fill="#ffffff" d="M 160.828125 184.613281 C 158.308594 182.125 154.960938 180.757812 151.394531 180.757812 L 151.363281 180.757812 C 147.789062 180.765625 144.425781 182.164062 141.902344 184.699219 C 139.375 187.230469 137.980469 190.59375 137.980469 194.171875 C 137.980469 197.945312 139.582031 201.566406 142.378906 204.105469 C 143.929688 205.511719 145.246094 207.164062 146.296875 209.011719 L 146.296875 196.988281 L 146.941406 196.988281 L 146.941406 208.464844 C 147.855469 208.1875 148.519531 207.335938 148.519531 206.335938 L 148.519531 196.339844 L 145.878906 196.339844 C 144.0625 196.339844 142.589844 194.867188 142.589844 193.050781 C 142.589844 191.234375 144.0625 189.761719 145.878906 189.761719 C 147.695312 189.761719 149.167969 191.234375 149.167969 193.050781 L 149.167969 195.691406 L 153.621094 195.691406 L 153.621094 193.050781 C 153.621094 191.234375 155.09375 189.761719 156.910156 189.761719 C 158.726562 189.761719 160.199219 191.234375 160.199219 193.050781 C 160.199219 194.867188 158.726562 196.339844 156.910156 196.339844 L 154.269531 196.339844 L 154.269531 206.335938 C 154.269531 207.335938 154.933594 208.1875 155.847656 208.464844 L 155.847656 196.988281 L 156.496094 196.988281 L 156.496094 209.078125 C 157.5625 207.191406 158.902344 205.496094 160.488281 204.035156 C 163.28125 201.457031 164.859375 197.796875 164.808594 193.992188 C 164.761719 190.429688 163.347656 187.097656 160.828125 184.613281 " fill-opacity="1" fill-rule="nonzero"/><path fill="#ffffff" d="M 156.011719 214.460938 C 156.011719 216.820312 154.371094 218.796875 152.167969 219.3125 C 153.875 218.367188 155.03125 216.550781 155.03125 214.460938 L 155.03125 213.269531 L 156.011719 213.269531 Z M 145.855469 212.710938 L 145.855469 214.460938 C 145.855469 217.519531 148.335938 220.003906 151.394531 220.003906 C 154.453125 220.003906 156.9375 217.519531 156.933594 214.460938 L 156.933594 212.710938 L 145.855469 212.710938 " fill-opacity="1" fill-rule="nonzero"/><path fill="#ffffff" d="M 156.9375 210.066406 L 145.855469 210.066406 L 145.855469 211.574219 L 156.9375 211.574219 L 156.9375 210.066406 " fill-opacity="1" fill-rule="nonzero"/><g fill="#ffffff" fill-opacity="1"><g transform="translate(111.057669, 267.908668)"><g><path d="M 2.734375 -18.796875 C 4.960938 -19.679688 6.945312 -19.820312 8.6875 -19.21875 C 10.425781 -18.613281 11.703125 -17.273438 12.515625 -15.203125 L 7.90625 -13.375 C 7.5625 -14.25 7.054688 -14.847656 6.390625 -15.171875 C 5.722656 -15.503906 4.972656 -15.503906 4.140625 -15.171875 C 3.160156 -14.785156 2.5625 -14.191406 2.34375 -13.390625 C 2.125 -12.597656 2.234375 -11.65625 2.671875 -10.5625 L 3.21875 -9.171875 C 3.644531 -8.085938 4.210938 -7.328125 4.921875 -6.890625 C 5.628906 -6.453125 6.457031 -6.421875 7.40625 -6.796875 C 8.332031 -7.171875 8.941406 -7.691406 9.234375 -8.359375 C 9.535156 -9.035156 9.507812 -9.8125 9.15625 -10.6875 L 13.609375 -12.453125 C 14.421875 -10.390625 14.414062 -8.5625 13.59375 -6.96875 C 12.769531 -5.375 11.207031 -4.125 8.90625 -3.21875 C 6.332031 -2.195312 4.125 -2.082031 2.28125 -2.875 C 0.445312 -3.664062 -0.976562 -5.347656 -2 -7.921875 C -3.007812 -10.484375 -3.113281 -12.679688 -2.3125 -14.515625 C -1.519531 -16.347656 0.160156 -17.773438 2.734375 -18.796875 Z M 2.734375 -18.796875 "/></g></g></g><g fill="#ffffff" fill-opacity="1"><g transform="translate(129.156152, 260.6944)"><g><path d="M 15.109375 -4.03125 L 13.609375 -9.65625 C 13.421875 -10.363281 13.253906 -11.09375 13.109375 -11.84375 C 12.972656 -12.59375 12.867188 -13.222656 12.796875 -13.734375 C 12.722656 -14.253906 12.675781 -14.582031 12.65625 -14.71875 L 12.578125 -14.703125 L 12.5 -3.328125 L 8.578125 -2.28125 L 2.84375 -12.078125 L 2.765625 -12.046875 C 2.804688 -11.921875 2.925781 -11.617188 3.125 -11.140625 C 3.320312 -10.671875 3.550781 -10.078125 3.8125 -9.359375 C 4.070312 -8.640625 4.296875 -7.925781 4.484375 -7.21875 L 5.984375 -1.59375 L 1.359375 -0.359375 L -2.8125 -16 L 4.28125 -17.890625 L 9.0625 -9.5 L 9.15625 -9.515625 L 9.078125 -19.171875 L 15.921875 -21 L 20.09375 -5.359375 Z M 15.109375 -4.03125 "/></g></g></g><g fill="#ffffff" fill-opacity="1"><g transform="translate(152.021923, 254.991877)"><g/></g></g><g fill="#ffffff" fill-opacity="1"><g transform="translate(161.179176, 253.287357)"><g><path d="M 9.234375 -17.140625 C 10.222656 -17.242188 11.128906 -17.101562 11.953125 -16.71875 C 12.785156 -16.332031 13.457031 -15.753906 13.96875 -14.984375 C 14.476562 -14.222656 14.78125 -13.347656 14.875 -12.359375 L 14.90625 -12.046875 C 15 -11.046875 14.867188 -10.117188 14.515625 -9.265625 C 14.160156 -8.410156 13.613281 -7.710938 12.875 -7.171875 C 12.132812 -6.640625 11.269531 -6.320312 10.28125 -6.21875 L 6.40625 -5.859375 L 6.90625 -0.671875 L 1.71875 -0.171875 L 0.171875 -16.28125 Z M 6.046875 -9.640625 L 8.171875 -9.84375 C 8.722656 -9.894531 9.125 -10.070312 9.375 -10.375 C 9.625 -10.6875 9.722656 -11.085938 9.671875 -11.578125 L 9.65625 -11.765625 C 9.601562 -12.265625 9.425781 -12.632812 9.125 -12.875 C 8.820312 -13.125 8.394531 -13.222656 7.84375 -13.171875 L 5.71875 -12.96875 Z M 6.046875 -9.640625 "/></g></g></g><g fill="#ffffff" fill-opacity="1"><g transform="translate(179.330954, 251.535698)"><g><path d="M 17.921875 -6.328125 C 17.898438 -4.117188 17.1875 -2.441406 15.78125 -1.296875 C 14.375 -0.148438 12.382812 0.40625 9.8125 0.375 C 7.238281 0.351562 5.253906 -0.242188 3.859375 -1.421875 C 2.460938 -2.597656 1.773438 -4.289062 1.796875 -6.5 L 1.890625 -16.171875 L 7.09375 -16.125 L 7 -6.53125 C 6.988281 -5.613281 7.222656 -4.878906 7.703125 -4.328125 C 8.191406 -3.785156 8.894531 -3.507812 9.8125 -3.5 C 10.738281 -3.488281 11.453125 -3.753906 11.953125 -4.296875 C 12.453125 -4.847656 12.707031 -5.570312 12.71875 -6.46875 L 12.8125 -16.0625 L 18.015625 -16 Z M 17.921875 -6.328125 "/></g></g></g><g fill="#ffffff" fill-opacity="1"><g transform="translate(200.145436, 251.848843)"><g><path d="M 14.359375 -14.578125 C 15.179688 -14.484375 15.910156 -14.222656 16.546875 -13.796875 C 17.179688 -13.378906 17.65625 -12.84375 17.96875 -12.1875 C 18.289062 -11.539062 18.40625 -10.84375 18.3125 -10.09375 C 18.070312 -8.113281 17.03125 -6.976562 15.1875 -6.6875 L 15.171875 -6.59375 C 17.148438 -5.863281 18.007812 -4.398438 17.75 -2.203125 C 17.644531 -1.359375 17.347656 -0.640625 16.859375 -0.046875 C 16.378906 0.546875 15.757812 0.976562 15 1.25 C 14.238281 1.53125 13.425781 1.617188 12.5625 1.515625 L 1.71875 0.203125 L 3.65625 -15.875 Z M 8.078125 -8.984375 L 11.625 -8.5625 C 11.96875 -8.519531 12.265625 -8.601562 12.515625 -8.8125 C 12.773438 -9.019531 12.925781 -9.304688 12.96875 -9.671875 L 13 -9.90625 C 13.039062 -10.25 12.957031 -10.554688 12.75 -10.828125 C 12.550781 -11.097656 12.285156 -11.253906 11.953125 -11.296875 L 8.40625 -11.71875 Z M 7.34375 -2.90625 L 11.265625 -2.4375 C 11.609375 -2.394531 11.90625 -2.484375 12.15625 -2.703125 C 12.40625 -2.921875 12.550781 -3.207031 12.59375 -3.5625 L 12.625 -3.796875 C 12.664062 -4.148438 12.585938 -4.460938 12.390625 -4.734375 C 12.203125 -5.003906 11.9375 -5.160156 11.59375 -5.203125 L 7.671875 -5.671875 Z M 7.34375 -2.90625 "/></g></g></g><g fill="#ffffff" fill-opacity="1"><g transform="translate(219.584598, 254.317699)"><g><path d="M 5.203125 -15.421875 L 10.28125 -14.28125 L 7.671875 -2.53125 L 15.796875 -0.734375 L 14.890625 3.3125 L 1.6875 0.375 Z M 5.203125 -15.421875 "/></g></g></g><g fill="#ffffff" fill-opacity="1"><g transform="translate(236.29315, 258.222127)"><g><path d="M 1.90625 0.578125 L 6.609375 -14.90625 L 11.5625 -13.40625 L 6.859375 2.078125 Z M 1.90625 0.578125 "/></g></g></g><g fill="#ffffff" fill-opacity="1"><g transform="translate(246.456212, 261.170402)"><g><path d="M 14.859375 -11.828125 C 17.085938 -10.941406 18.628906 -9.6875 19.484375 -8.0625 C 20.335938 -6.4375 20.359375 -4.585938 19.546875 -2.515625 L 14.9375 -4.34375 C 15.28125 -5.21875 15.320312 -6 15.0625 -6.6875 C 14.800781 -7.382812 14.253906 -7.898438 13.421875 -8.234375 C 12.441406 -8.617188 11.597656 -8.59375 10.890625 -8.15625 C 10.179688 -7.726562 9.609375 -6.96875 9.171875 -5.875 L 8.625 -4.484375 C 8.195312 -3.398438 8.09375 -2.457031 8.3125 -1.65625 C 8.53125 -0.851562 9.113281 -0.265625 10.0625 0.109375 C 10.988281 0.484375 11.785156 0.519531 12.453125 0.21875 C 13.128906 -0.0703125 13.644531 -0.65625 14 -1.53125 L 18.453125 0.234375 C 17.640625 2.296875 16.382812 3.625 14.6875 4.21875 C 12.988281 4.8125 10.988281 4.65625 8.6875 3.75 C 6.113281 2.726562 4.425781 1.300781 3.625 -0.53125 C 2.832031 -2.363281 2.945312 -4.566406 3.96875 -7.140625 C 4.976562 -9.703125 6.398438 -11.378906 8.234375 -12.171875 C 10.078125 -12.960938 12.285156 -12.847656 14.859375 -11.828125 Z M 14.859375 -11.828125 "/></g></g></g><g fill="#083e78" fill-opacity="1"><g transform="translate(144.039145, 301.630662)"><g><path d="M 8.0625 -8.265625 C 9.300781 -7.890625 10.238281 -7.332031 10.875 -6.59375 C 11.519531 -5.851562 11.703125 -4.984375 11.421875 -3.984375 L 11.375 -3.828125 L 8.46875 -4.71875 L 8.484375 -4.78125 C 8.566406 -5.050781 8.535156 -5.3125 8.390625 -5.5625 C 8.242188 -5.8125 7.960938 -6 7.546875 -6.125 C 7.128906 -6.25 6.789062 -6.285156 6.53125 -6.234375 C 6.28125 -6.179688 6.125 -6.066406 6.0625 -5.890625 C 5.988281 -5.640625 6.082031 -5.40625 6.34375 -5.1875 C 6.601562 -4.976562 7.046875 -4.703125 7.671875 -4.359375 C 8.398438 -3.960938 8.988281 -3.601562 9.4375 -3.28125 C 9.894531 -2.957031 10.25 -2.539062 10.5 -2.03125 C 10.75 -1.53125 10.773438 -0.945312 10.578125 -0.28125 C 10.234375 0.863281 9.59375 1.59375 8.65625 1.90625 C 7.71875 2.226562 6.609375 2.191406 5.328125 1.796875 C 3.816406 1.335938 2.71875 0.734375 2.03125 -0.015625 C 1.34375 -0.773438 1.191406 -1.796875 1.578125 -3.078125 L 4.515625 -2.1875 C 4.367188 -1.707031 4.398438 -1.347656 4.609375 -1.109375 C 4.816406 -0.867188 5.179688 -0.664062 5.703125 -0.5 C 6.097656 -0.382812 6.4375 -0.328125 6.71875 -0.328125 C 7 -0.335938 7.175781 -0.472656 7.25 -0.734375 C 7.320312 -0.960938 7.234375 -1.175781 6.984375 -1.375 C 6.742188 -1.582031 6.320312 -1.851562 5.71875 -2.1875 C 4.988281 -2.59375 4.390625 -2.960938 3.921875 -3.296875 C 3.460938 -3.628906 3.109375 -4.066406 2.859375 -4.609375 C 2.609375 -5.148438 2.59375 -5.78125 2.8125 -6.5 C 3.132812 -7.550781 3.78125 -8.203125 4.75 -8.453125 C 5.71875 -8.710938 6.820312 -8.648438 8.0625 -8.265625 Z M 8.0625 -8.265625 "/></g></g></g><g fill="#083e78" fill-opacity="1"><g transform="translate(158.044273, 305.671125)"><g><path d="M 7.640625 -9.015625 C 9.097656 -8.742188 10.191406 -8.164062 10.921875 -7.28125 C 11.648438 -6.394531 11.882812 -5.265625 11.625 -3.890625 L 8.578125 -4.453125 C 8.691406 -5.035156 8.625 -5.519531 8.375 -5.90625 C 8.132812 -6.289062 7.738281 -6.535156 7.1875 -6.640625 C 6.539062 -6.765625 6.03125 -6.648438 5.65625 -6.296875 C 5.28125 -5.953125 5.023438 -5.414062 4.890625 -4.6875 L 4.734375 -3.765625 C 4.597656 -3.054688 4.644531 -2.472656 4.875 -2.015625 C 5.101562 -1.554688 5.53125 -1.269531 6.15625 -1.15625 C 6.769531 -1.039062 7.265625 -1.113281 7.640625 -1.375 C 8.015625 -1.632812 8.253906 -2.050781 8.359375 -2.625 L 11.296875 -2.078125 C 11.046875 -0.722656 10.4375 0.234375 9.46875 0.796875 C 8.507812 1.367188 7.273438 1.515625 5.765625 1.234375 C 4.078125 0.921875 2.875 0.257812 2.15625 -0.75 C 1.4375 -1.769531 1.234375 -3.128906 1.546875 -4.828125 C 1.859375 -6.515625 2.53125 -7.710938 3.5625 -8.421875 C 4.59375 -9.128906 5.953125 -9.328125 7.640625 -9.015625 Z M 7.640625 -9.015625 "/></g></g></g><g fill="#083e78" fill-opacity="1"><g transform="translate(173.255606, 308.238876)"><g><path d="M 7.859375 0.484375 L 8.09375 -3.34375 L 4.53125 -3.5625 L 4.296875 0.265625 L 1.078125 0.0625 L 1.703125 -10 L 4.921875 -9.796875 L 4.6875 -6.109375 L 8.25 -5.890625 L 8.484375 -9.578125 L 11.71875 -9.375 L 11.09375 0.6875 Z M 7.859375 0.484375 "/></g></g></g><g fill="#083e78" fill-opacity="1"><g transform="translate(189.483826, 308.988465)"><g><path d="M 5.453125 -10.609375 C 7.191406 -10.710938 8.554688 -10.347656 9.546875 -9.515625 C 10.546875 -8.679688 11.097656 -7.414062 11.203125 -5.71875 C 11.304688 -4.03125 10.914062 -2.710938 10.03125 -1.765625 C 9.144531 -0.828125 7.832031 -0.304688 6.09375 -0.203125 C 4.363281 -0.0976562 3 -0.457031 2 -1.28125 C 1 -2.101562 0.445312 -3.363281 0.34375 -5.0625 C 0.238281 -6.769531 0.628906 -8.09375 1.515625 -9.03125 C 2.410156 -9.976562 3.722656 -10.503906 5.453125 -10.609375 Z M 5.59375 -8.1875 C 4.894531 -8.144531 4.378906 -7.90625 4.046875 -7.46875 C 3.722656 -7.03125 3.582031 -6.453125 3.625 -5.734375 L 3.6875 -4.796875 C 3.726562 -4.097656 3.9375 -3.546875 4.3125 -3.140625 C 4.695312 -2.742188 5.238281 -2.566406 5.9375 -2.609375 C 6.625 -2.648438 7.140625 -2.890625 7.484375 -3.328125 C 7.828125 -3.773438 7.976562 -4.347656 7.9375 -5.046875 L 7.875 -5.984375 C 7.832031 -6.703125 7.613281 -7.257812 7.21875 -7.65625 C 6.820312 -8.050781 6.28125 -8.226562 5.59375 -8.1875 Z M 5.59375 -8.1875 "/></g></g></g><g fill="#083e78" fill-opacity="1"><g transform="translate(205.681409, 307.741083)"><g><path d="M 4.109375 -11.203125 C 5.828125 -11.515625 7.226562 -11.316406 8.3125 -10.609375 C 9.394531 -9.910156 10.09375 -8.726562 10.40625 -7.0625 C 10.71875 -5.382812 10.492188 -4.023438 9.734375 -2.984375 C 8.972656 -1.941406 7.734375 -1.265625 6.015625 -0.953125 C 4.304688 -0.628906 2.90625 -0.8125 1.8125 -1.5 C 0.726562 -2.195312 0.03125 -3.390625 -0.28125 -5.078125 C -0.59375 -6.753906 -0.367188 -8.113281 0.390625 -9.15625 C 1.160156 -10.195312 2.398438 -10.878906 4.109375 -11.203125 Z M 4.546875 -8.8125 C 3.867188 -8.675781 3.390625 -8.375 3.109375 -7.90625 C 2.835938 -7.4375 2.765625 -6.847656 2.890625 -6.140625 L 3.0625 -5.21875 C 3.195312 -4.519531 3.476562 -3.992188 3.90625 -3.640625 C 4.34375 -3.296875 4.898438 -3.191406 5.578125 -3.328125 C 6.253906 -3.453125 6.734375 -3.753906 7.015625 -4.234375 C 7.304688 -4.710938 7.382812 -5.300781 7.25 -6 L 7.078125 -6.921875 C 6.953125 -7.628906 6.664062 -8.148438 6.21875 -8.484375 C 5.78125 -8.828125 5.222656 -8.9375 4.546875 -8.8125 Z M 4.546875 -8.8125 "/></g></g></g><g fill="#083e78" fill-opacity="1"><g transform="translate(221.546013, 304.478658)"><g><path d="M -1.921875 -9.953125 L 1.171875 -10.90625 L 3.375 -3.734375 L 8.3125 -5.25 L 9.0625 -2.78125 L 1.03125 -0.3125 Z M -1.921875 -9.953125 "/></g></g></g></svg>