<?xml version="1.0" standalone="no"?>
<!DOCTYPE svg PUBLIC "-//W3C//DTD SVG 1.1//EN" "http://www.w3.org/Graphics/SVG/1.1/DTD/svg11.dtd">
<svg xmlns="http://www.w3.org/2000/svg" xmlns:xlink="http://www.w3.org/1999/xlink" width="375" zoomAndPan="magnify" viewBox="0 0 375 374.999991" height="375" preserveAspectRatio="xMidYMid meet" version="1.0"><defs><g/><clipPath id="d0d69e31b3"><path d="M 147.671875 107.328125 L 227.171875 107.328125 L 227.171875 183.078125 L 147.671875 183.078125 Z M 147.671875 107.328125 " clip-rule="nonzero"/></clipPath><clipPath id="c581be609a"><path d="M 147.671875 107.328125 L 227.171875 107.328125 L 227.171875 183 L 147.671875 183 Z M 147.671875 107.328125 " clip-rule="nonzero"/></clipPath><clipPath id="14174d339f"><path d="M 127 122 L 200 122 L 200 222.332031 L 127 222.332031 Z M 127 122 " clip-rule="nonzero"/></clipPath><clipPath id="a1d058d969"><path d="M 136 112.082031 L 143 112.082031 L 143 122 L 136 122 Z M 136 112.082031 " clip-rule="nonzero"/></clipPath><clipPath id="c79bf84c1e"><path d="M 118.707031 158 L 128 158 L 128 166 L 118.707031 166 Z M 118.707031 158 " clip-rule="nonzero"/></clipPath><clipPath id="9f84147784"><path d="M 175 122 L 248 122 L 248 222.332031 L 175 222.332031 Z M 175 122 " clip-rule="nonzero"/></clipPath><clipPath id="c7e7ce00fc"><path d="M 232 112.082031 L 239 112.082031 L 239 122 L 232 122 Z M 232 112.082031 " clip-rule="nonzero"/></clipPath><clipPath id="3f2c69d151"><path d="M 247 158 L 255.957031 158 L 255.957031 166 L 247 166 Z M 247 158 " clip-rule="nonzero"/></clipPath><clipPath id="6ec079f32b"><path d="M 247 147 L 255.957031 147 L 255.957031 156 L 247 156 Z M 247 147 " clip-rule="nonzero"/></clipPath></defs><g clip-path="url(#d0d69e31b3)"><path fill="#ff914d" d="M 187.601562 107.589844 L 199.875 132.464844 L 227.324219 136.457031 L 207.457031 155.832031 L 212.160156 183.171875 L 187.601562 170.265625 L 163.027344 183.171875 L 167.71875 155.832031 L 147.863281 136.457031 L 175.316406 132.464844 Z M 187.601562 107.589844 " fill-opacity="1" fill-rule="nonzero"/></g><g clip-path="url(#c581be609a)"><path fill="#ff914d" d="M 187.410156 107.351562 L 199.699219 132.226562 L 227.152344 136.214844 L 207.28125 155.59375 L 211.96875 182.933594 L 187.410156 170.027344 L 162.851562 182.933594 L 167.542969 155.59375 L 147.671875 136.214844 L 175.125 132.226562 Z M 187.410156 107.351562 " fill-opacity="1" fill-rule="nonzero"/><path fill="#ff914d" d="M 187.410156 107.351562 L 199.699219 132.226562 L 227.152344 136.214844 L 207.28125 155.59375 L 211.96875 182.933594 L 187.410156 170.027344 L 162.851562 182.933594 L 167.542969 155.59375 L 147.671875 136.214844 L 175.125 132.226562 Z M 187.410156 107.351562 " fill-opacity="1" fill-rule="nonzero"/><path fill="#ff914d" d="M 187.410156 107.351562 L 199.699219 132.226562 L 227.152344 136.214844 L 207.28125 155.59375 L 211.96875 182.933594 L 187.410156 170.027344 L 162.851562 182.933594 L 167.542969 155.59375 L 147.671875 136.214844 L 175.125 132.226562 Z M 187.410156 107.351562 " fill-opacity="1" fill-rule="nonzero"/></g><g clip-path="url(#14174d339f)"><path fill="#00bf63" d="M 136.792969 122.394531 C 121.222656 157.128906 127.089844 184.289062 162.996094 198.761719 C 180.003906 205.726562 193.886719 205.980469 199.554688 222.054688 C 198.472656 221.390625 197.339844 220.828125 196.160156 220.367188 C 190.566406 207.792969 177.644531 207.375 160.535156 199.765625 C 125.957031 184.40625 120.265625 157.257812 136.308594 122.46875 Z M 136.792969 122.394531 " fill-opacity="1" fill-rule="nonzero"/></g><path fill="#00bf63" d="M 176.964844 203.085938 C 181.007812 198.269531 181.941406 196.265625 174.691406 190.933594 C 168.855469 197.796875 172.039062 199.703125 176.964844 203.085938 Z M 176.964844 203.085938 " fill-opacity="1" fill-rule="nonzero"/><path fill="#00bf63" d="M 167.953125 200.007812 C 171.316406 196.308594 173.832031 194.464844 166.488281 188.207031 C 160.703125 194.347656 162.714844 196.171875 167.953125 200.007812 Z M 167.953125 200.007812 " fill-opacity="1" fill-rule="nonzero"/><path fill="#00bf63" d="M 159.203125 196.421875 C 164.894531 191.007812 162.734375 189.089844 158.910156 185.003906 C 153.460938 189.886719 154.089844 191.980469 159.203125 196.421875 Z M 159.203125 196.421875 " fill-opacity="1" fill-rule="nonzero"/><path fill="#00bf63" d="M 150.894531 192.054688 C 156.132812 188.125 155.800781 186.195312 152.992188 182.257812 C 152.800781 181.996094 152.625 181.722656 152.488281 181.523438 L 152.238281 181.1875 L 151.1875 181.941406 L 150.140625 182.664062 C 146.222656 185.179688 147.847656 188.703125 150.894531 192.054688 Z M 150.894531 192.054688 " fill-opacity="1" fill-rule="nonzero"/><path fill="#00bf63" d="M 143.382812 186.625 C 145.65625 185.441406 147.289062 184.792969 147.910156 182.433594 C 147.980469 182.128906 148.027344 181.816406 148.046875 181.503906 C 148.066406 181.199219 148.066406 180.894531 148.046875 180.589844 C 148.019531 180.289062 147.96875 179.992188 147.886719 179.699219 C 147.6875 178.976562 147.480469 178.769531 146.640625 176.640625 C 141.757812 178.96875 139.242188 180.550781 143.382812 186.625 Z M 143.382812 186.625 " fill-opacity="1" fill-rule="nonzero"/><path fill="#00bf63" d="M 137.125 179.910156 C 142.703125 178.402344 143.203125 177.113281 142.367188 171.308594 C 135.242188 172.878906 135.410156 174.714844 137.125 179.910156 Z M 137.125 179.910156 " fill-opacity="1" fill-rule="nonzero"/><path fill="#00bf63" d="M 132.601562 171.988281 C 138.4375 171.851562 138.886719 170.59375 139.464844 165.082031 C 137.160156 165.082031 135.492188 164.589844 133.835938 166.070312 C 133.382812 166.472656 133.03125 166.957031 132.789062 167.515625 C 132.605469 167.96875 132.492188 168.441406 132.441406 168.929688 C 132.441406 169.097656 132.441406 169.265625 132.441406 169.441406 C 132.464844 170.363281 132.433594 169.894531 132.601562 171.988281 Z M 132.601562 171.988281 " fill-opacity="1" fill-rule="nonzero"/><path fill="#00bf63" d="M 130.066406 163.199219 C 136.226562 164.507812 136.65625 162.441406 137.945312 158.03125 C 134.339844 157.089844 130.945312 155.914062 130.066406 163.199219 Z M 130.066406 163.199219 " fill-opacity="1" fill-rule="nonzero"/><path fill="#00bf63" d="M 129.425781 153.996094 C 135.292969 156.460938 135.910156 154.417969 137.808594 150.308594 C 133.730469 148.402344 131.488281 147.792969 129.425781 153.996094 Z M 129.425781 153.996094 " fill-opacity="1" fill-rule="nonzero"/><path fill="#00bf63" d="M 130.359375 144.734375 L 131.320312 145.320312 L 132.328125 145.878906 C 132.777344 146.140625 133.261719 146.296875 133.777344 146.347656 C 134.296875 146.398438 134.800781 146.339844 135.292969 146.171875 C 137.199219 145.542969 137.621094 144.167969 138.835938 142.21875 C 133.972656 139.078125 132.621094 140.261719 130.359375 144.734375 Z M 130.359375 144.734375 " fill-opacity="1" fill-rule="nonzero"/><path fill="#00bf63" d="M 132.515625 135.609375 C 136.539062 138.753906 137.578125 138.34375 140.816406 134.066406 C 138.425781 132.078125 136.382812 129.679688 132.515625 135.609375 Z M 132.515625 135.609375 " fill-opacity="1" fill-rule="nonzero"/><path fill="#00bf63" d="M 135.640625 126.734375 C 139.964844 130.925781 141.085938 128.828125 143.675781 125.957031 C 141.757812 124.019531 139.902344 121.410156 135.640625 126.734375 Z M 135.640625 126.734375 " fill-opacity="1" fill-rule="nonzero"/><g clip-path="url(#a1d058d969)"><path fill="#00bf63" d="M 136.707031 121.777344 C 143.246094 118.769531 142.503906 117.011719 141.652344 112.347656 C 137.09375 113.542969 135.050781 115.847656 136.707031 121.777344 Z M 136.707031 121.777344 " fill-opacity="1" fill-rule="nonzero"/></g><path fill="#00bf63" d="M 176 206.808594 C 176.492188 215.292969 173.707031 215.410156 166.296875 214.800781 C 166.058594 209.792969 165.136719 206.261719 176 206.808594 Z M 176 206.808594 " fill-opacity="1" fill-rule="nonzero"/><path fill="#00bf63" d="M 166.90625 203.507812 C 167.050781 211.660156 164.160156 211.773438 156.984375 210.714844 C 157.003906 201.632812 161.582031 203.035156 166.90625 203.507812 Z M 166.90625 203.507812 " fill-opacity="1" fill-rule="nonzero"/><path fill="#00bf63" d="M 157.96875 199.660156 L 157.894531 201.085938 C 157.769531 203.78125 158.167969 208.421875 147.667969 205.695312 C 147.75 204.648438 147.355469 197.566406 154.742188 199.0625 L 155.242188 199.167969 L 156.355469 199.378906 Z M 157.96875 199.660156 " fill-opacity="1" fill-rule="nonzero"/><path fill="#00bf63" d="M 149.398438 194.96875 C 148.003906 203.351562 144.273438 201.808594 138.636719 199.367188 C 140.425781 190.933594 144.796875 193.6875 149.398438 194.96875 Z M 149.398438 194.96875 " fill-opacity="1" fill-rule="nonzero"/><path fill="#00bf63" d="M 141.539062 189.097656 C 140.417969 192.304688 139.957031 197.839844 130.453125 191.308594 C 133.375 184.214844 135.902344 186.417969 141.539062 189.097656 Z M 141.539062 189.097656 " fill-opacity="1" fill-rule="nonzero"/><path fill="#00bf63" d="M 134.949219 181.828125 C 131.21875 187.863281 129.070312 187.066406 124.027344 181.480469 C 127.203125 177.019531 127.980469 176.453125 134.949219 181.828125 Z M 134.949219 181.828125 " fill-opacity="1" fill-rule="nonzero"/><path fill="#00bf63" d="M 130.230469 173.246094 C 125.945312 177.4375 124.019531 177.835938 120.109375 170.523438 L 121.03125 169.734375 L 121.671875 169.210938 L 121.964844 168.980469 C 122.457031 168.59375 123.015625 168.355469 123.636719 168.261719 C 124.253906 168.167969 124.859375 168.234375 125.445312 168.457031 C 128 169.328125 128.878906 171.769531 130.230469 173.246094 Z M 130.230469 173.246094 " fill-opacity="1" fill-rule="nonzero"/><g clip-path="url(#c79bf84c1e)"><path fill="#00bf63" d="M 127.632812 163.859375 C 124.898438 165.503906 121.640625 168.929688 118.707031 159.300781 C 125.078125 155.96875 125.683594 159.675781 127.632812 163.859375 Z M 127.632812 163.859375 " fill-opacity="1" fill-rule="nonzero"/></g><path fill="#00bf63" d="M 127.089844 154.1875 C 123.464844 155.484375 120.71875 157.328125 119.410156 148.496094 C 121.503906 147.835938 122.917969 147.144531 124.648438 148.496094 C 126.375 149.847656 126.503906 151.640625 127.089844 154.1875 Z M 127.089844 154.1875 " fill-opacity="1" fill-rule="nonzero"/><path fill="#00bf63" d="M 128.21875 144.609375 C 125.078125 145.25 121.753906 146.703125 121.683594 138.324219 C 125.578125 137.628906 127.496094 137.273438 128.21875 144.609375 Z M 128.21875 144.609375 " fill-opacity="1" fill-rule="nonzero"/><path fill="#00bf63" d="M 130.589844 135.292969 C 124.21875 135.828125 124.636719 133.0625 125.015625 128.640625 C 130.367188 128.359375 130.660156 130.253906 130.589844 135.292969 Z M 130.589844 135.292969 " fill-opacity="1" fill-rule="nonzero"/><path fill="#00bf63" d="M 133.921875 126.304688 C 128.554688 126.21875 128.304688 124.597656 129.183594 119.515625 C 134.265625 119.683594 134.496094 121.609375 133.921875 126.304688 Z M 133.921875 126.304688 " fill-opacity="1" fill-rule="nonzero"/><g clip-path="url(#9f84147784)"><path fill="#00bf63" d="M 238.15625 122.394531 C 253.726562 157.128906 247.828125 184.289062 211.960938 198.761719 C 194.957031 205.726562 181.070312 205.980469 175.402344 222.054688 C 176.488281 221.394531 177.617188 220.832031 178.796875 220.367188 C 184.402344 207.792969 197.3125 207.375 214.425781 199.765625 C 249.003906 184.40625 254.734375 157.257812 238.679688 122.46875 Z M 238.15625 122.394531 " fill-opacity="1" fill-rule="nonzero"/></g><path fill="#00bf63" d="M 198.003906 203.085938 C 193.972656 198.269531 193.039062 196.265625 200.289062 190.933594 C 206.113281 197.796875 202.941406 199.703125 198.003906 203.085938 Z M 198.003906 203.085938 " fill-opacity="1" fill-rule="nonzero"/><path fill="#00bf63" d="M 207.015625 200.007812 C 203.652344 196.308594 201.136719 194.464844 208.492188 188.207031 C 214.265625 194.347656 212.222656 196.171875 207.015625 200.007812 Z M 207.015625 200.007812 " fill-opacity="1" fill-rule="nonzero"/><path fill="#00bf63" d="M 215.777344 196.421875 C 210.085938 191.007812 212.246094 189.089844 216.058594 185.003906 C 221.507812 189.886719 220.890625 191.980469 215.777344 196.421875 Z M 215.777344 196.421875 " fill-opacity="1" fill-rule="nonzero"/><path fill="#00bf63" d="M 224.074219 192.054688 C 218.898438 188.125 219.179688 186.195312 222.042969 182.257812 C 222.230469 181.996094 222.398438 181.722656 222.535156 181.523438 L 222.765625 181.1875 L 223.8125 181.941406 C 224.347656 182.308594 224.859375 182.664062 224.859375 182.664062 C 228.726562 185.179688 227.125 188.703125 224.074219 192.054688 Z M 224.074219 192.054688 " fill-opacity="1" fill-rule="nonzero"/><path fill="#00bf63" d="M 231.597656 186.625 C 229.324219 185.441406 227.679688 184.792969 227.070312 182.433594 C 226.992188 182.144531 226.941406 181.847656 226.914062 181.542969 C 226.894531 181.242188 226.894531 180.9375 226.914062 180.632812 C 226.9375 180.332031 226.984375 180.035156 227.0625 179.742188 C 227.261719 179.019531 227.46875 178.808594 228.316406 176.683594 C 233.265625 178.96875 235.726562 180.550781 231.597656 186.625 Z M 231.597656 186.625 " fill-opacity="1" fill-rule="nonzero"/><path fill="#00bf63" d="M 237.851562 179.910156 C 232.269531 178.402344 231.777344 177.113281 232.613281 171.308594 C 239.738281 172.878906 239.570312 174.714844 237.851562 179.910156 Z M 237.851562 179.910156 " fill-opacity="1" fill-rule="nonzero"/><path fill="#00bf63" d="M 242.347656 171.988281 C 236.523438 171.851562 236.0625 170.59375 235.496094 165.082031 C 237.789062 165.082031 239.46875 164.589844 241.113281 166.070312 C 241.566406 166.472656 241.914062 166.957031 242.160156 167.515625 C 242.277344 167.808594 242.367188 168.113281 242.433594 168.425781 C 242.433594 168.59375 242.433594 168.75 242.503906 168.917969 C 242.515625 169.089844 242.515625 169.261719 242.503906 169.433594 C 242.503906 170.363281 242.535156 169.894531 242.347656 171.988281 Z M 242.347656 171.988281 " fill-opacity="1" fill-rule="nonzero"/><path fill="#00bf63" d="M 244.914062 163.199219 C 238.742188 164.507812 238.3125 162.441406 237.035156 158.03125 C 240.628906 157.089844 244.023438 155.914062 244.914062 163.199219 Z M 244.914062 163.199219 " fill-opacity="1" fill-rule="nonzero"/><path fill="#00bf63" d="M 245.542969 153.996094 C 239.675781 156.460938 239.058594 154.417969 237.160156 150.308594 C 241.300781 148.402344 243.480469 147.792969 245.542969 153.996094 Z M 245.542969 153.996094 " fill-opacity="1" fill-rule="nonzero"/><path fill="#00bf63" d="M 244.613281 144.734375 L 243.648438 145.320312 L 242.683594 145.898438 C 242.238281 146.160156 241.753906 146.316406 241.238281 146.367188 C 240.722656 146.417969 240.21875 146.359375 239.730469 146.191406 C 237.820312 145.5625 237.390625 144.191406 236.1875 142.242188 C 240.996094 139.078125 242.347656 140.261719 244.613281 144.734375 Z M 244.613281 144.734375 " fill-opacity="1" fill-rule="nonzero"/><path fill="#00bf63" d="M 242.453125 135.609375 C 238.429688 138.753906 237.402344 138.34375 234.15625 134.066406 C 236.542969 132.078125 238.585938 129.679688 242.453125 135.609375 Z M 242.453125 135.609375 " fill-opacity="1" fill-rule="nonzero"/><path fill="#00bf63" d="M 239.339844 126.734375 C 235.003906 130.925781 233.894531 128.828125 231.304688 125.957031 C 233.234375 124.019531 235.078125 121.410156 239.339844 126.734375 Z M 239.339844 126.734375 " fill-opacity="1" fill-rule="nonzero"/><g clip-path="url(#c7e7ce00fc)"><path fill="#00bf63" d="M 238.273438 121.777344 C 231.722656 118.769531 232.476562 117.011719 233.328125 112.347656 C 237.875 113.542969 239.929688 115.847656 238.273438 121.777344 Z M 238.273438 121.777344 " fill-opacity="1" fill-rule="nonzero"/></g><path fill="#00bf63" d="M 198.980469 206.808594 C 198.488281 215.292969 201.261719 215.410156 208.683594 214.800781 C 208.921875 209.792969 209.867188 206.261719 198.980469 206.808594 Z M 198.980469 206.808594 " fill-opacity="1" fill-rule="nonzero"/><path fill="#00bf63" d="M 208.074219 203.507812 C 207.917969 211.660156 210.808594 211.773438 217.988281 210.714844 C 217.964844 201.632812 213.398438 203.035156 208.074219 203.507812 Z M 208.074219 203.507812 " fill-opacity="1" fill-rule="nonzero"/><path fill="#00bf63" d="M 217.011719 199.660156 L 217.085938 201.085938 C 217.199219 203.78125 216.8125 208.421875 227.3125 205.695312 C 227.21875 204.648438 227.617188 197.566406 220.238281 199.0625 L 219.738281 199.167969 L 218.625 199.378906 Z M 217.011719 199.660156 " fill-opacity="1" fill-rule="nonzero"/><path fill="#00bf63" d="M 225.582031 194.96875 C 226.964844 203.351562 230.707031 201.808594 236.34375 199.367188 C 234.542969 190.933594 230.171875 193.6875 225.582031 194.96875 Z M 225.582031 194.96875 " fill-opacity="1" fill-rule="nonzero"/><path fill="#00bf63" d="M 233.429688 189.097656 C 234.5625 192.304688 235.023438 197.839844 244.515625 191.308594 C 241.582031 184.214844 239.070312 186.417969 233.429688 189.097656 Z M 233.429688 189.097656 " fill-opacity="1" fill-rule="nonzero"/><path fill="#00bf63" d="M 240.03125 181.828125 C 243.753906 187.863281 245.910156 187.066406 250.949219 181.480469 C 247.777344 177.019531 247 176.453125 240.03125 181.828125 Z M 240.03125 181.828125 " fill-opacity="1" fill-rule="nonzero"/><path fill="#00bf63" d="M 244.769531 173.246094 C 249.066406 177.4375 250.984375 177.835938 254.902344 170.523438 L 253.980469 169.734375 L 253.339844 169.210938 L 253.035156 168.980469 C 252.542969 168.59375 251.988281 168.355469 251.371094 168.261719 C 250.753906 168.167969 250.152344 168.234375 249.566406 168.457031 C 246.96875 169.328125 246.089844 171.769531 244.769531 173.246094 Z M 244.769531 173.246094 " fill-opacity="1" fill-rule="nonzero"/><g clip-path="url(#3f2c69d151)"><path fill="#00bf63" d="M 247.347656 163.859375 C 250.070312 165.503906 253.328125 168.898438 256.261719 159.300781 C 249.894531 155.96875 249.296875 159.675781 247.347656 163.859375 Z M 247.347656 163.859375 " fill-opacity="1" fill-rule="nonzero"/></g><g clip-path="url(#6ec079f32b)"><path fill="#00bf63" d="M 247.871094 154.1875 C 251.484375 155.484375 254.242188 157.328125 255.539062 148.496094 C 253.445312 147.835938 252.03125 147.144531 250.300781 148.496094 C 248.574219 149.847656 248.476562 151.640625 247.871094 154.1875 Z M 247.871094 154.1875 " fill-opacity="1" fill-rule="nonzero"/></g><path fill="#00bf63" d="M 246.75 144.609375 C 249.894531 145.25 253.214844 146.703125 253.296875 138.324219 C 249.398438 137.628906 247.484375 137.273438 246.75 144.609375 Z M 246.75 144.609375 " fill-opacity="1" fill-rule="nonzero"/><path fill="#00bf63" d="M 244.382812 135.292969 C 250.761719 135.828125 250.34375 133.0625 249.964844 128.640625 C 244.601562 128.359375 244.308594 130.253906 244.382812 135.292969 Z M 244.382812 135.292969 " fill-opacity="1" fill-rule="nonzero"/><path fill="#00bf63" d="M 241.050781 126.304688 C 246.425781 126.21875 246.664062 124.597656 245.785156 119.515625 C 240.703125 119.683594 240.484375 121.609375 241.050781 126.304688 Z M 241.050781 126.304688 " fill-opacity="1" fill-rule="nonzero"/><g fill="#ff914d" fill-opacity="1"><g transform="translate(110.197264, 242.186703)"><g><path d="M 6.28125 -9.789062 L 9.769531 -9.789062 L 9.769531 -12.234375 L 0.0898438 -12.234375 L 0.0898438 -9.789062 L 3.582031 -9.789062 L 3.582031 0 L 6.28125 0 Z M 6.28125 -9.789062 "/></g></g></g><g fill="#ff914d" fill-opacity="1"><g transform="translate(120.054861, 242.186703)"><g><path d="M 9.570312 -2.445312 L 4.75 -2.445312 L 9.859375 -12.234375 L 0.71875 -12.234375 L 0.71875 -9.789062 L 5.46875 -9.789062 L 0.359375 0 L 9.570312 0 Z M 9.570312 -2.445312 "/></g></g></g><g fill="#ff914d" fill-opacity="1"><g transform="translate(130.272225, 242.186703)"><g><path d="M 3.777344 -4.371094 L 5.667969 -4.371094 C 7.648438 -4.371094 9.410156 -5.828125 9.410156 -8.3125 C 9.410156 -10.632812 7.648438 -12.234375 5.667969 -12.234375 L 1.078125 -12.234375 L 1.078125 0 L 3.777344 0 Z M 5.21875 -10.113281 C 6.007812 -10.113281 6.835938 -9.429688 6.835938 -8.3125 C 6.835938 -7.144531 6.007812 -6.496094 5.21875 -6.496094 L 3.777344 -6.496094 L 3.777344 -10.113281 Z M 5.21875 -10.113281 "/></g></g></g><g fill="#ff914d" fill-opacity="1"><g transform="translate(139.949944, 242.186703)"><g/></g></g><g fill="#ff914d" fill-opacity="1"><g transform="translate(144.447025, 242.186703)"><g><path d="M 3.777344 -4.371094 L 5.667969 -4.371094 C 7.648438 -4.371094 9.410156 -5.828125 9.410156 -8.3125 C 9.410156 -10.632812 7.648438 -12.234375 5.667969 -12.234375 L 1.078125 -12.234375 L 1.078125 0 L 3.777344 0 Z M 5.21875 -10.113281 C 6.007812 -10.113281 6.835938 -9.429688 6.835938 -8.3125 C 6.835938 -7.144531 6.007812 -6.496094 5.21875 -6.496094 L 3.777344 -6.496094 L 3.777344 -10.113281 Z M 5.21875 -10.113281 "/></g></g></g><g fill="#ff914d" fill-opacity="1"><g transform="translate(154.124744, 242.186703)"><g><path d="M 1.078125 0 L 8.167969 0 L 8.167969 -2.445312 L 3.777344 -2.445312 L 3.777344 -12.234375 L 1.078125 -12.234375 Z M 1.078125 0 "/></g></g></g><g fill="#ff914d" fill-opacity="1"><g transform="translate(162.921038, 242.186703)"><g><path d="M 7.738281 -4.679688 L 4.640625 -4.679688 L 6.1875 -9.03125 Z M 12.308594 0 L 7.339844 -12.234375 L 5.054688 -12.234375 L 0.0898438 0 L 2.988281 0 L 3.867188 -2.464844 L 8.527344 -2.464844 L 9.410156 0 Z M 12.308594 0 "/></g></g></g><g fill="#ff914d" fill-opacity="1"><g transform="translate(175.314989, 242.186703)"><g><path d="M 4.660156 0 L 7.359375 0 L 7.359375 -5.847656 L 11.875 -12.234375 L 8.65625 -12.234375 L 6.007812 -8.007812 L 3.363281 -12.234375 L 0.144531 -12.234375 L 4.660156 -5.847656 Z M 4.660156 0 "/></g></g></g><g fill="#ff914d" fill-opacity="1"><g transform="translate(187.331193, 242.186703)"><g/></g></g><g fill="#ff914d" fill-opacity="1"><g transform="translate(191.828274, 242.186703)"><g><path d="M 5.828125 -1.90625 C 4.5 -1.90625 3.347656 -2.574219 3.273438 -4.03125 L 0.539062 -4.03125 C 0.558594 -1.042969 3.023438 0.289062 5.722656 0.289062 C 8.222656 0.289062 10.796875 -0.773438 10.796875 -3.652344 C 10.796875 -8.3125 3.722656 -6.746094 3.722656 -8.925781 C 3.722656 -9.84375 4.785156 -10.203125 5.542969 -10.203125 C 6.890625 -10.203125 7.628906 -9.789062 7.773438 -8.511719 L 10.382812 -8.511719 C 10.292969 -11.300781 8.023438 -12.414062 5.503906 -12.414062 C 3.273438 -12.414062 0.9375 -11.226562 0.9375 -8.707031 C 0.9375 -4.191406 8.007812 -5.722656 8.007812 -3.347656 C 8.007812 -2.25 6.675781 -1.90625 5.828125 -1.90625 Z M 5.828125 -1.90625 "/></g></g></g><g fill="#ff914d" fill-opacity="1"><g transform="translate(203.160923, 242.186703)"><g><path d="M 9.914062 -4.15625 C 9.410156 -3.078125 8.1875 -2.339844 6.925781 -2.339844 C 4.949219 -2.339844 3.363281 -4.03125 3.363281 -6.117188 C 3.363281 -8.1875 4.949219 -9.894531 6.925781 -9.894531 C 8.167969 -9.894531 9.390625 -9.210938 9.894531 -8.113281 L 12.902344 -8.113281 C 12.074219 -10.617188 9.714844 -12.414062 6.925781 -12.414062 C 3.453125 -12.414062 0.628906 -9.589844 0.628906 -6.117188 C 0.628906 -2.644531 3.453125 0.179688 6.925781 0.179688 C 9.714844 0.179688 12.089844 -1.636719 12.917969 -4.15625 Z M 9.914062 -4.15625 "/></g></g></g><g fill="#ff914d" fill-opacity="1"><g transform="translate(216.526248, 242.186703)"><g><path d="M 7.808594 -12.234375 L 7.808594 -7.359375 L 3.777344 -7.359375 L 3.777344 -12.234375 L 1.078125 -12.234375 L 1.078125 0 L 3.777344 0 L 3.777344 -4.910156 L 7.808594 -4.910156 L 7.808594 0 L 10.6875 0 L 10.6875 -12.234375 Z M 7.808594 -12.234375 "/></g></g></g><g fill="#ff914d" fill-opacity="1"><g transform="translate(228.290614, 242.186703)"><g><path d="M 10.527344 -6.136719 C 10.527344 -4.246094 8.816406 -2.519531 6.925781 -2.519531 C 5.039062 -2.519531 3.328125 -4.246094 3.328125 -6.136719 C 3.328125 -8.023438 5.039062 -9.734375 6.925781 -9.734375 C 8.816406 -9.734375 10.527344 -8.023438 10.527344 -6.136719 Z M 13.222656 -6.117188 C 13.222656 -9.5 10.308594 -12.414062 6.925781 -12.414062 C 3.542969 -12.414062 0.628906 -9.5 0.628906 -6.117188 C 0.628906 -2.734375 3.542969 0.179688 6.925781 0.179688 C 10.308594 0.179688 13.222656 -2.734375 13.222656 -6.117188 Z M 13.222656 -6.117188 "/></g></g></g><g fill="#ff914d" fill-opacity="1"><g transform="translate(242.141626, 242.186703)"><g><path d="M 10.527344 -6.136719 C 10.527344 -4.246094 8.816406 -2.519531 6.925781 -2.519531 C 5.039062 -2.519531 3.328125 -4.246094 3.328125 -6.136719 C 3.328125 -8.023438 5.039062 -9.734375 6.925781 -9.734375 C 8.816406 -9.734375 10.527344 -8.023438 10.527344 -6.136719 Z M 13.222656 -6.117188 C 13.222656 -9.5 10.308594 -12.414062 6.925781 -12.414062 C 3.542969 -12.414062 0.628906 -9.5 0.628906 -6.117188 C 0.628906 -2.734375 3.542969 0.179688 6.925781 0.179688 C 10.308594 0.179688 13.222656 -2.734375 13.222656 -6.117188 Z M 13.222656 -6.117188 "/></g></g></g><g fill="#ff914d" fill-opacity="1"><g transform="translate(255.992639, 242.186703)"><g><path d="M 1.078125 0 L 8.167969 0 L 8.167969 -2.445312 L 3.777344 -2.445312 L 3.777344 -12.234375 L 1.078125 -12.234375 Z M 1.078125 0 "/></g></g></g></svg>